<svg xmlns="http://www.w3.org/2000/svg" width="135" height="40" viewBox="0 0 135 40" fill="none"><rect x="0.5" y="0.5" width="134" height="39" rx="4.5" fill="black"></rect><path d="M42.125 17H39.8807V9.72727H42.2244C42.9299 9.72727 43.5336 9.87287 44.0355 10.1641C44.5374 10.4529 44.9221 10.8684 45.1896 11.4105C45.4571 11.9503 45.5909 12.5966 45.5909 13.3494C45.5909 14.107 45.456 14.7592 45.1861 15.3061C44.9162 15.8506 44.5232 16.2696 44.0071 16.5632C43.491 16.8544 42.8636 17 42.125 17ZM40.7614 16.2188H42.0682C42.6695 16.2188 43.1679 16.1027 43.5632 15.8707C43.9586 15.6387 44.2533 15.3085 44.4474 14.88C44.6416 14.4515 44.7386 13.9413 44.7386 13.3494C44.7386 12.7623 44.6428 12.2569 44.451 11.8331C44.2592 11.407 43.9728 11.0803 43.5916 10.853C43.2105 10.6233 42.7358 10.5085 42.1676 10.5085H40.7614V16.2188ZM49.1705 17.1136C48.678 17.1136 48.246 16.9964 47.8743 16.7621C47.505 16.5277 47.2161 16.1998 47.0078 15.7784C46.8018 15.357 46.6989 14.8646 46.6989 14.3011C46.6989 13.733 46.8018 13.237 47.0078 12.8132C47.2161 12.3894 47.505 12.0604 47.8743 11.826C48.246 11.5916 48.678 11.4744 49.1705 11.4744C49.6629 11.4744 50.0938 11.5916 50.4631 11.826C50.8348 12.0604 51.1236 12.3894 51.3295 12.8132C51.5379 13.237 51.642 13.733 51.642 14.3011C51.642 14.8646 51.5379 15.357 51.3295 15.7784C51.1236 16.1998 50.8348 16.5277 50.4631 16.7621C50.0938 16.9964 49.6629 17.1136 49.1705 17.1136ZM49.1705 16.3608C49.5445 16.3608 49.8523 16.2649 50.0938 16.0732C50.3352 15.8814 50.514 15.6293 50.63 15.3168C50.746 15.0043 50.804 14.6657 50.804 14.3011C50.804 13.9366 50.746 13.5968 50.63 13.282C50.514 12.9671 50.3352 12.7126 50.0938 12.5185C49.8523 12.3243 49.5445 12.2273 49.1705 12.2273C48.7964 12.2273 48.4886 12.3243 48.2472 12.5185C48.0057 12.7126 47.8269 12.9671 47.7109 13.282C47.5949 13.5968 47.5369 13.9366 47.5369 14.3011C47.5369 14.6657 47.5949 15.0043 47.7109 15.3168C47.8269 15.6293 48.0057 15.8814 48.2472 16.0732C48.4886 16.2649 48.7964 16.3608 49.1705 16.3608ZM53.9716 17L52.3097 11.5455H53.1903L54.3693 15.7216H54.4261L55.5909 11.5455H56.4858L57.6364 15.7074H57.6932L58.8722 11.5455H59.7528L58.0909 17H57.267L56.0739 12.8097H55.9886L54.7955 17H53.9716ZM61.6989 13.7188V17H60.8608V11.5455H61.6705V12.3977H61.7415C61.8693 12.1207 62.0634 11.8982 62.3239 11.7301C62.5843 11.5597 62.9205 11.4744 63.3324 11.4744C63.7017 11.4744 64.0249 11.5502 64.3018 11.7017C64.5788 11.8509 64.7943 12.0781 64.9482 12.3835C65.102 12.6866 65.179 13.0701 65.179 13.5341V17H64.3409V13.5909C64.3409 13.1624 64.2296 12.8286 64.0071 12.5895C63.7846 12.348 63.4792 12.2273 63.0909 12.2273C62.8234 12.2273 62.5843 12.2853 62.3736 12.4013C62.1652 12.5173 62.0007 12.6866 61.88 12.9091C61.7592 13.1316 61.6989 13.4015 61.6989 13.7188ZM67.5485 9.72727V17H66.7104V9.72727H67.5485ZM71.2994 17.1136C70.8069 17.1136 70.3749 16.9964 70.0032 16.7621C69.6339 16.5277 69.3451 16.1998 69.1367 15.7784C68.9308 15.357 68.8278 14.8646 68.8278 14.3011C68.8278 13.733 68.9308 13.237 69.1367 12.8132C69.3451 12.3894 69.6339 12.0604 70.0032 11.826C70.3749 11.5916 70.8069 11.4744 71.2994 11.4744C71.7918 11.4744 72.2227 11.5916 72.592 11.826C72.9637 12.0604 73.2525 12.3894 73.4585 12.8132C73.6668 13.237 73.771 13.733 73.771 14.3011C73.771 14.8646 73.6668 15.357 73.4585 15.7784C73.2525 16.1998 72.9637 16.5277 72.592 16.7621C72.2227 16.9964 71.7918 17.1136 71.2994 17.1136ZM71.2994 16.3608C71.6734 16.3608 71.9812 16.2649 72.2227 16.0732C72.4641 15.8814 72.6429 15.6293 72.7589 15.3168C72.8749 15.0043 72.9329 14.6657 72.9329 14.3011C72.9329 13.9366 72.8749 13.5968 72.7589 13.282C72.6429 12.9671 72.4641 12.7126 72.2227 12.5185C71.9812 12.3243 71.6734 12.2273 71.2994 12.2273C70.9253 12.2273 70.6175 12.3243 70.3761 12.5185C70.1346 12.7126 69.9558 12.9671 69.8398 13.282C69.7238 13.5968 69.6658 13.9366 69.6658 14.3011C69.6658 14.6657 69.7238 15.0043 69.8398 15.3168C69.9558 15.6293 70.1346 15.8814 70.3761 16.0732C70.6175 16.2649 70.9253 16.3608 71.2994 16.3608ZM76.6554 17.1278C76.3097 17.1278 75.996 17.0627 75.7143 16.9325C75.4326 16.8 75.2089 16.6094 75.0431 16.3608C74.8774 16.1098 74.7946 15.8068 74.7946 15.4517C74.7946 15.1392 74.8561 14.8859 74.9792 14.6918C75.1023 14.4953 75.2669 14.3414 75.4728 14.2301C75.6788 14.1188 75.9061 14.036 76.1547 13.9815C76.4056 13.9247 76.6577 13.8797 76.911 13.8466C77.2425 13.804 77.5112 13.772 77.7172 13.7507C77.9255 13.727 78.077 13.688 78.1717 13.6335C78.2688 13.5791 78.3173 13.4844 78.3173 13.3494V13.321C78.3173 12.9706 78.2214 12.6984 78.0297 12.5043C77.8403 12.3101 77.5526 12.2131 77.1667 12.2131C76.7666 12.2131 76.4529 12.3007 76.2257 12.4759C75.9984 12.651 75.8386 12.8381 75.7463 13.0369L74.9508 12.7528C75.0929 12.4214 75.2823 12.1634 75.519 11.9787C75.7581 11.7917 76.0185 11.6615 76.3002 11.5881C76.5843 11.5123 76.8637 11.4744 77.1383 11.4744C77.3135 11.4744 77.5147 11.4957 77.742 11.5384C77.9717 11.5786 78.193 11.6626 78.4061 11.7905C78.6215 11.9183 78.8002 12.1113 78.9423 12.3693C79.0843 12.6274 79.1554 12.973 79.1554 13.4062V17H78.3173V16.2614H78.2747C78.2179 16.3797 78.1232 16.5064 77.9906 16.6413C77.858 16.7763 77.6816 16.8911 77.4615 16.9858C77.2413 17.0805 76.9726 17.1278 76.6554 17.1278ZM76.7832 16.375C77.1146 16.375 77.394 16.3099 77.6213 16.1797C77.8509 16.0495 78.0237 15.8814 78.1397 15.6754C78.2581 15.4695 78.3173 15.2528 78.3173 15.0256V14.2585C78.2818 14.3011 78.2037 14.3402 78.0829 14.3757C77.9645 14.4089 77.8272 14.4384 77.671 14.4645C77.5171 14.4882 77.3668 14.5095 77.22 14.5284C77.0756 14.545 76.9584 14.5592 76.8684 14.571C76.6506 14.5994 76.447 14.6456 76.2576 14.7095C76.0706 14.7711 75.9191 14.8646 75.8031 14.9901C75.6895 15.1132 75.6326 15.2812 75.6326 15.4943C75.6326 15.7855 75.7404 16.0057 75.9558 16.1548C76.1736 16.3016 76.4494 16.375 76.7832 16.375ZM82.7447 17.1136C82.2901 17.1136 81.8888 16.9988 81.5408 16.7692C81.1928 16.5372 80.9206 16.2105 80.7241 15.7891C80.5276 15.3653 80.4293 14.8646 80.4293 14.2869C80.4293 13.714 80.5276 13.2169 80.7241 12.7955C80.9206 12.3741 81.194 12.0485 81.5444 11.8189C81.8948 11.5893 82.2996 11.4744 82.7589 11.4744C83.114 11.4744 83.3945 11.5336 83.6005 11.652C83.8088 11.768 83.9674 11.9006 84.0763 12.0497C84.1876 12.1965 84.274 12.3172 84.3356 12.4119H84.4066V9.72727H85.2447V17H84.435V16.1619H84.3356C84.274 16.2614 84.1864 16.3868 84.0728 16.5384C83.9592 16.6875 83.797 16.8213 83.5863 16.9396C83.3756 17.0556 83.0951 17.1136 82.7447 17.1136ZM82.8583 16.3608C83.1945 16.3608 83.4786 16.2732 83.7106 16.098C83.9426 15.9205 84.119 15.6754 84.2397 15.3629C84.3604 15.0481 84.4208 14.6847 84.4208 14.2727C84.4208 13.8655 84.3616 13.5092 84.2433 13.2038C84.1249 12.8961 83.9497 12.657 83.7177 12.4865C83.4857 12.3137 83.1992 12.2273 82.8583 12.2273C82.5032 12.2273 82.2073 12.3184 81.9705 12.5007C81.7362 12.6806 81.5598 12.9257 81.4414 13.2358C81.3254 13.5436 81.2674 13.8892 81.2674 14.2727C81.2674 14.661 81.3266 15.0137 81.445 15.331C81.5657 15.6458 81.7433 15.8968 81.9776 16.0838C82.2144 16.2685 82.5079 16.3608 82.8583 16.3608Z" fill="white"></path><path d="M40.8857 30H39.2379L41.7486 22.7273H43.7301L46.2372 30H44.5895L42.7678 24.3892H42.7109L40.8857 30ZM40.7827 27.1413H44.6747V28.3416H40.7827V27.1413ZM53.1957 22.7273V30H51.8675L48.7035 25.4226H48.6502V30H47.1126V22.7273H48.462L51.6012 27.3011H51.6651V22.7273H53.1957ZM57.0442 30H54.4661V22.7273H57.0655C57.7971 22.7273 58.4268 22.8729 58.9547 23.1641C59.4827 23.4529 59.8887 23.8684 60.1728 24.4105C60.4592 24.9527 60.6025 25.6013 60.6025 26.3565C60.6025 27.1141 60.4592 27.7652 60.1728 28.3097C59.8887 28.8542 59.4803 29.272 58.9476 29.5632C58.4173 29.8544 57.7828 30 57.0442 30ZM56.0037 28.6825H56.9803C57.4348 28.6825 57.8172 28.602 58.1273 28.4411C58.4398 28.2777 58.6742 28.0256 58.8304 27.6847C58.9891 27.3414 59.0684 26.8987 59.0684 26.3565C59.0684 25.8191 58.9891 25.38 58.8304 25.0391C58.6742 24.6982 58.441 24.4472 58.1309 24.2862C57.8207 24.1252 57.4384 24.0447 56.9838 24.0447H56.0037V28.6825ZM61.7415 30V22.7273H64.6108C65.16 22.7273 65.6288 22.8255 66.017 23.022C66.4077 23.2161 66.7048 23.492 66.9084 23.8494C67.1143 24.2045 67.2173 24.6224 67.2173 25.103C67.2173 25.5859 67.1132 26.0014 66.9048 26.3494C66.6965 26.6951 66.3946 26.9602 65.9993 27.1449C65.6063 27.3295 65.1304 27.4219 64.5717 27.4219H62.6506V26.1861H64.3232C64.6167 26.1861 64.8606 26.1458 65.0547 26.0653C65.2488 25.9848 65.3932 25.8641 65.4879 25.7031C65.585 25.5421 65.6335 25.3421 65.6335 25.103C65.6335 24.8615 65.585 24.6579 65.4879 24.4922C65.3932 24.3265 65.2476 24.201 65.0511 24.1158C64.857 24.0282 64.612 23.9844 64.3161 23.9844H63.2791V30H61.7415ZM65.669 26.6903L67.4766 30H65.7791L64.0107 26.6903H65.669ZM74.9872 26.3636C74.9872 27.1567 74.8369 27.8314 74.5362 28.3878C74.2379 28.9441 73.8307 29.3691 73.3146 29.6626C72.8009 29.9538 72.2232 30.0994 71.5817 30.0994C70.9354 30.0994 70.3554 29.9527 69.8416 29.6591C69.3279 29.3655 68.9219 28.9406 68.6236 28.3842C68.3253 27.8279 68.1761 27.1544 68.1761 26.3636C68.1761 25.5705 68.3253 24.8958 68.6236 24.3395C68.9219 23.7831 69.3279 23.3594 69.8416 23.0682C70.3554 22.7746 70.9354 22.6278 71.5817 22.6278C72.2232 22.6278 72.8009 22.7746 73.3146 23.0682C73.8307 23.3594 74.2379 23.7831 74.5362 24.3395C74.8369 24.8958 74.9872 25.5705 74.9872 26.3636ZM73.4283 26.3636C73.4283 25.8499 73.3513 25.4167 73.1974 25.0639C73.0459 24.7112 72.8317 24.4437 72.5547 24.2614C72.2777 24.0791 71.9534 23.9879 71.5817 23.9879C71.21 23.9879 70.8857 24.0791 70.6087 24.2614C70.3317 24.4437 70.1162 24.7112 69.9624 25.0639C69.8108 25.4167 69.7351 25.8499 69.7351 26.3636C69.7351 26.8774 69.8108 27.3106 69.9624 27.6634C70.1162 28.0161 70.3317 28.2836 70.6087 28.4659C70.8857 28.6482 71.21 28.7393 71.5817 28.7393C71.9534 28.7393 72.2777 28.6482 72.5547 28.4659C72.8317 28.2836 73.0459 28.0161 73.1974 27.6634C73.3513 27.3106 73.4283 26.8774 73.4283 26.3636ZM77.6639 22.7273V30H76.1262V22.7273H77.6639ZM81.5071 30H78.929V22.7273H81.5284C82.2599 22.7273 82.8897 22.8729 83.4176 23.1641C83.9455 23.4529 84.3516 23.8684 84.6357 24.4105C84.9221 24.9527 85.0653 25.6013 85.0653 26.3565C85.0653 27.1141 84.9221 27.7652 84.6357 28.3097C84.3516 28.8542 83.9432 29.272 83.4105 29.5632C82.8802 29.8544 82.2457 30 81.5071 30ZM80.4666 28.6825H81.4432C81.8977 28.6825 82.2801 28.602 82.5902 28.4411C82.9027 28.2777 83.1371 28.0256 83.2933 27.6847C83.4519 27.3414 83.5312 26.8987 83.5312 26.3565C83.5312 25.8191 83.4519 25.38 83.2933 25.0391C83.1371 24.6982 82.9039 24.4472 82.5938 24.2862C82.2836 24.1252 81.9013 24.0447 81.4467 24.0447H80.4666V28.6825ZM89.7724 30H88.1246L90.6353 22.7273H92.6168L95.1239 30H93.4762L91.6545 24.3892H91.5977L89.7724 30ZM89.6694 27.1413H93.5614V28.3416H89.6694V27.1413ZM95.9993 30V22.7273H98.8686C99.4202 22.7273 99.8902 22.8326 100.278 23.0433C100.667 23.2517 100.963 23.5417 101.166 23.9134C101.372 24.2827 101.475 24.7088 101.475 25.1918C101.475 25.6747 101.371 26.1009 101.163 26.4702C100.954 26.8395 100.652 27.1271 100.257 27.3331C99.8641 27.5391 99.3883 27.642 98.8295 27.642H97.0007V26.4098H98.581C98.8769 26.4098 99.1207 26.3589 99.3125 26.2571C99.5066 26.1529 99.651 26.0097 99.7457 25.8274C99.8428 25.6428 99.8913 25.4309 99.8913 25.1918C99.8913 24.9503 99.8428 24.7396 99.7457 24.5597C99.651 24.3774 99.5066 24.2365 99.3125 24.1371C99.1184 24.0353 98.8722 23.9844 98.5739 23.9844H97.5369V30H95.9993ZM102.474 30V22.7273H105.343C105.895 22.7273 106.365 22.8326 106.753 23.0433C107.141 23.2517 107.437 23.5417 107.641 23.9134C107.847 24.2827 107.95 24.7088 107.95 25.1918C107.95 25.6747 107.846 26.1009 107.637 26.4702C107.429 26.8395 107.127 27.1271 106.732 27.3331C106.339 27.5391 105.863 27.642 105.304 27.642H103.475V26.4098H105.056C105.352 26.4098 105.595 26.3589 105.787 26.2571C105.981 26.1529 106.126 26.0097 106.22 25.8274C106.317 25.6428 106.366 25.4309 106.366 25.1918C106.366 24.9503 106.317 24.7396 106.22 24.5597C106.126 24.3774 105.981 24.2365 105.787 24.1371C105.593 24.0353 105.347 23.9844 105.048 23.9844H104.012V30H102.474Z" fill="white"></path><rect x="0.5" y="0.5" width="134" height="39" rx="4.5" stroke="#A6A6A6"></rect></svg>